<svg width="820" height="926" viewBox="0 0 820 926" fill="none" xmlns="http://www.w3.org/2000/svg">
<path fill-rule="evenodd" clip-rule="evenodd" d="M450.219 0.697243C554.931 5.6725 665.078 44.5864 729.013 125.604C788.128 200.514 748.407 306.882 765.293 399.959C778.869 474.789 829.535 541.165 818.038 616.325C805.302 699.593 764.696 779.055 698.96 833.633C630.111 890.794 538.923 938.824 450.219 921.708C364.245 905.119 337.463 796.325 264.009 749.708C183.639 698.701 43.521 726.656 6.78451 640.283C-29.2036 555.67 88.573 481.343 112.153 392.674C138.274 294.455 83.9855 175.795 150.961 98.1389C220.349 17.6853 342.542 -4.4189 450.219 0.697243Z" fill="url(#paint0_linear_1547_4466)"/>
<defs>
<linearGradient id="paint0_linear_1547_4466" x1="409.861" y1="7.23509e-06" x2="683.875" y2="864.027" gradientUnits="userSpaceOnUse">
<stop stop-color="#26267C"/>
<stop offset="1" stop-color="#4545E2"/>
</linearGradient>
</defs>
</svg>
